<mxfile host="65bd71144e">
    <diagram id="HPP7A_PtHlUFCuQwIbOf" name="Page-1">
        <mxGraphModel dx="1958" dy="1527" grid="1" gridSize="10" guides="1" tooltips="1" connect="1" arrows="1" fold="1" page="1" pageScale="1" pageWidth="850" pageHeight="1100" math="0" shadow="0">
            <root>
                <mxCell id="0"/>
                <mxCell id="1" parent="0"/>
                <mxCell id="11" style="edgeStyle=none;html=1;exitX=0.5;exitY=1;exitDx=0;exitDy=0;entryX=0.5;entryY=0;entryDx=0;entryDy=0;" edge="1" parent="1" source="2" target="6">
                    <mxGeometry relative="1" as="geometry"/>
                </mxCell>
                <mxCell id="27" style="edgeStyle=none;html=1;exitX=0;exitY=0.5;exitDx=0;exitDy=0;entryX=0.25;entryY=0;entryDx=0;entryDy=0;" edge="1" parent="1" source="2" target="4">
                    <mxGeometry relative="1" as="geometry"/>
                </mxCell>
                <mxCell id="2" value="Clientes" style="rounded=0;whiteSpace=wrap;html=1;" vertex="1" parent="1">
                    <mxGeometry x="365" y="50" width="120" height="60" as="geometry"/>
                </mxCell>
                <mxCell id="4" value="envio" style="rounded=0;whiteSpace=wrap;html=1;" vertex="1" parent="1">
                    <mxGeometry x="60" y="340" width="120" height="60" as="geometry"/>
                </mxCell>
                <mxCell id="29" style="edgeStyle=none;html=1;exitX=0;exitY=0.5;exitDx=0;exitDy=0;entryX=1;entryY=0.5;entryDx=0;entryDy=0;" edge="1" parent="1" source="5" target="4">
                    <mxGeometry relative="1" as="geometry"/>
                </mxCell>
                <mxCell id="5" value="Productos" style="rounded=0;whiteSpace=wrap;html=1;" vertex="1" parent="1">
                    <mxGeometry x="365" y="350" width="120" height="60" as="geometry"/>
                </mxCell>
                <mxCell id="12" style="edgeStyle=none;html=1;exitX=0.5;exitY=1;exitDx=0;exitDy=0;entryX=0.5;entryY=0;entryDx=0;entryDy=0;" edge="1" parent="1" source="6" target="5">
                    <mxGeometry relative="1" as="geometry"/>
                </mxCell>
                <mxCell id="6" value="Compran" style="rhombus;whiteSpace=wrap;html=1;" vertex="1" parent="1">
                    <mxGeometry x="385" y="170" width="80" height="80" as="geometry"/>
                </mxCell>
                <mxCell id="7" value="detalles de pago" style="ellipse;whiteSpace=wrap;html=1;" vertex="1" parent="1">
                    <mxGeometry x="290" y="200" width="120" height="80" as="geometry"/>
                </mxCell>
                <mxCell id="8" value="Nombre" style="ellipse;whiteSpace=wrap;html=1;" vertex="1" parent="1">
                    <mxGeometry x="440" y="210" width="120" height="80" as="geometry"/>
                </mxCell>
                <mxCell id="10" value="Direccion" style="ellipse;whiteSpace=wrap;html=1;" vertex="1" parent="1">
                    <mxGeometry x="440" y="130" width="120" height="80" as="geometry"/>
                </mxCell>
                <mxCell id="13" value="Carrito" style="ellipse;whiteSpace=wrap;html=1;" vertex="1" parent="1">
                    <mxGeometry x="365" y="-30" width="120" height="80" as="geometry"/>
                </mxCell>
                <mxCell id="14" value="Nombre" style="ellipse;whiteSpace=wrap;html=1;" vertex="1" parent="1">
                    <mxGeometry x="320" y="300" width="70" height="50" as="geometry"/>
                </mxCell>
                <mxCell id="15" value="Descripcion" style="ellipse;whiteSpace=wrap;html=1;" vertex="1" parent="1">
                    <mxGeometry x="292.5" y="400" width="75" height="50" as="geometry"/>
                </mxCell>
                <mxCell id="16" value="Precio" style="ellipse;whiteSpace=wrap;html=1;" vertex="1" parent="1">
                    <mxGeometry x="440" y="310" width="65" height="40" as="geometry"/>
                </mxCell>
                <mxCell id="17" value="Cantidad" style="ellipse;whiteSpace=wrap;html=1;" vertex="1" parent="1">
                    <mxGeometry x="485" y="345" width="65" height="50" as="geometry"/>
                </mxCell>
                <mxCell id="21" value="Categorias" style="ellipse;whiteSpace=wrap;html=1;" vertex="1" parent="1">
                    <mxGeometry x="365" y="410" width="85" height="50" as="geometry"/>
                </mxCell>
                <mxCell id="23" value="Fecha estimada" style="ellipse;whiteSpace=wrap;html=1;" vertex="1" parent="1">
                    <mxGeometry x="-60" y="330" width="120" height="80" as="geometry"/>
                </mxCell>
                <mxCell id="24" value="servicio" style="ellipse;whiteSpace=wrap;html=1;" vertex="1" parent="1">
                    <mxGeometry x="10" y="400" width="120" height="80" as="geometry"/>
                </mxCell>
                <mxCell id="25" value="Estado" style="ellipse;whiteSpace=wrap;html=1;" vertex="1" parent="1">
                    <mxGeometry x="-40" y="250" width="120" height="80" as="geometry"/>
                </mxCell>
                <mxCell id="26" value="ID" style="ellipse;whiteSpace=wrap;html=1;" vertex="1" parent="1">
                    <mxGeometry x="130" y="400" width="70" height="60" as="geometry"/>
                </mxCell>
                <mxCell id="28" value="pedir" style="rhombus;whiteSpace=wrap;html=1;" vertex="1" parent="1">
                    <mxGeometry x="180" y="170" width="80" height="80" as="geometry"/>
                </mxCell>
                <mxCell id="30" value="se envian" style="rhombus;whiteSpace=wrap;html=1;" vertex="1" parent="1">
                    <mxGeometry x="230" y="340" width="80" height="80" as="geometry"/>
                </mxCell>
                <mxCell id="31" value="ID" style="ellipse;whiteSpace=wrap;html=1;" vertex="1" parent="1">
                    <mxGeometry x="485" y="30" width="120" height="80" as="geometry"/>
                </mxCell>
                <mxCell id="32" value="N" style="text;html=1;strokeColor=none;fillColor=none;align=center;verticalAlign=middle;whiteSpace=wrap;rounded=0;" vertex="1" parent="1">
                    <mxGeometry x="305" y="70" width="60" height="30" as="geometry"/>
                </mxCell>
                <mxCell id="33" value="1" style="text;html=1;strokeColor=none;fillColor=none;align=center;verticalAlign=middle;whiteSpace=wrap;rounded=0;" vertex="1" parent="1">
                    <mxGeometry x="90" y="310" width="60" height="30" as="geometry"/>
                </mxCell>
                <mxCell id="34" value="N" style="text;html=1;strokeColor=none;fillColor=none;align=center;verticalAlign=middle;whiteSpace=wrap;rounded=0;" vertex="1" parent="1">
                    <mxGeometry x="380" y="110" width="60" height="30" as="geometry"/>
                </mxCell>
                <mxCell id="35" value="N" style="text;html=1;strokeColor=none;fillColor=none;align=center;verticalAlign=middle;whiteSpace=wrap;rounded=0;" vertex="1" parent="1">
                    <mxGeometry x="380" y="310" width="60" height="30" as="geometry"/>
                </mxCell>
                <mxCell id="36" value="N" style="text;html=1;strokeColor=none;fillColor=none;align=center;verticalAlign=middle;whiteSpace=wrap;rounded=0;" vertex="1" parent="1">
                    <mxGeometry x="320" y="380" width="60" height="30" as="geometry"/>
                </mxCell>
                <mxCell id="37" value="N" style="text;html=1;strokeColor=none;fillColor=none;align=center;verticalAlign=middle;whiteSpace=wrap;rounded=0;" vertex="1" parent="1">
                    <mxGeometry x="170" y="340" width="60" height="30" as="geometry"/>
                </mxCell>
                <mxCell id="38" value="id" style="ellipse;whiteSpace=wrap;html=1;" vertex="1" parent="1">
                    <mxGeometry x="450" y="415" width="75" height="40" as="geometry"/>
                </mxCell>
                <mxCell id="39" value="&lt;h1&gt;2&lt;/h1&gt;&lt;div&gt;Clientes(PK_ID,&lt;/div&gt;FK_Envio&lt;span style=&quot;background-color: initial;&quot;&gt;, Compran)&lt;/span&gt;&lt;br&gt;&lt;div&gt;Envio(PK_ID, servicio, Fecha Estimada,estado)&lt;/div&gt;&lt;div&gt;Producto(PK_ID,Nombre,Precio,Cantidad,Descripcion,Categorias)&lt;/div&gt;&lt;div&gt;Pedir(PK(FK_Productos,FK_Envio))&lt;/div&gt;&lt;div&gt;compran(PK(FK_Cliente,FK_Productos),Nombre,Direccion,Detalles de pago)&lt;/div&gt;" style="text;html=1;strokeColor=none;fillColor=none;spacing=5;spacingTop=-20;whiteSpace=wrap;overflow=hidden;rounded=0;" vertex="1" parent="1">
                    <mxGeometry x="-295" y="600" width="730" height="120" as="geometry"/>
                </mxCell>
            </root>
        </mxGraphModel>
    </diagram>
</mxfile>